<?xml version="1.0" encoding="iso-8859-1"?>
<!-- Uploaded to: SVG Repo, www.svgrepo.com, Generator: SVG Repo Mixer Tools -->
<svg height="800px" width="800px" version="1.1" id="Capa_1" xmlns="http://www.w3.org/2000/svg" xmlns:xlink="http://www.w3.org/1999/xlink" 
	 viewBox="0 0 312.105 312.105" xml:space="preserve">
<g>
	<path style="fill:#010002;" d="M59.831,305.903c61.075,11.612,122.488,4.009,183.96,0.484c8.044-0.462,12.733-5.891,13.598-13.598
		c6.26-55.843,0.169-112.768,8.702-168.274c5.33-34.663,5.798-67.504-21.414-93.046C197.493-12.826,118.562,8.582,61.049,0.141
		c-1.599-0.234-3.079-0.152-4.498,0.071C50.182,0.728,44.074,5.047,43.84,13.249c-2.665,93.253,2.899,186.37,6.016,279.535
		C50.035,298.484,53.81,304.761,59.831,305.903z M198.924,37.317c7.19,2.41,14.191,5.423,20.902,9.339
		c16.121,9.404,21.468,24.117,22.316,40.331c-0.647,0.087-1.289,0.147-1.969,0.326c-16.741,4.542-33.331,6.69-50.235,4.852
		C192.75,73.856,196.177,55.641,198.924,37.317z M70.758,28.07c33.129,2.181,68.766-1.588,101.879,3.16
		c-3.345,24.144-8.382,48.021-11.58,72.193c-0.751,5.684,4.683,11.933,9.981,13.114c23.372,5.183,46.341,4.096,69.321-1.267
		c-1.327,9.475-2.986,18.759-3.889,27.157c-4.895,45.617-1.496,91.762-5.151,137.543c-51.481,3.438-103.516,9.257-154.698,1.327
		C73.635,196.904,69.104,112.539,70.758,28.07z"/>
</g>
</svg>