<?xml version="1.0" encoding="iso-8859-1"?>
<!-- Uploaded to: SVG Repo, www.svgrepo.com, Generator: SVG Repo Mixer Tools -->
<svg height="800px" width="800px" version="1.1" id="Capa_1" xmlns="http://www.w3.org/2000/svg" xmlns:xlink="http://www.w3.org/1999/xlink" 
	 viewBox="0 0 295.982 295.982" xml:space="preserve">
<g>
	<path style="fill:#010002;" d="M160.884,3.868C76.666,1.839,1.117,58.944,0.013,146.497
		c-1.333,105.561,98.567,164.309,195.464,140.35c68.44-16.926,103.723-90.288,100.275-156.074
		C291.835,55.925,235.726,2.617,160.884,3.868z M249.612,74.233c-4.183,0.212-8.36,0.158-12.515-0.245
		c-0.245-5.069-0.424-10.149-0.566-15.235C241.393,63.393,245.761,68.571,249.612,74.233z M234.551,177.788
		c-22.316-2.067-44.671-4.058-66.253-9.257c4.123-12.26,8.795-24.302,13.995-36.105c14.947,5.254,31.139,8.246,47.309,9.943
		C231.097,154.182,232.74,165.99,234.551,177.788z M169.837,127.313c-5.428,12.298-10.258,24.851-14.555,37.633
		c-7.8-2.448-15.474-5.39-22.975-9.067c-12.706-6.228-22.583-15.529-30.252-26.624c11.096-9.497,22.686-18.438,34.62-26.951
		c2.671,3.34,5.711,6.554,9.192,9.616C153.019,118.203,161.129,123.218,169.837,127.313z M147.787,94.603
		c12.787-8.675,25.923-16.894,39.281-24.742c1.012,0.925,2.078,1.838,3.231,2.72c2.002,1.528,4.21,2.856,6.445,4.145
		c-7.68,12.086-14.549,24.53-20.734,37.274c-3.383-1.474-6.744-3.035-10.057-4.776C158.29,105.198,152.416,100.221,147.787,94.603z
		 M227.894,127.917c-13.375-1.822-26.548-4.672-39.314-9.034c6.108-12.515,12.929-24.715,20.554-36.534
		c4.83,1.692,9.872,2.981,15.039,3.889C225.065,100.178,226.338,114.064,227.894,127.917z M223.026,62.344
		c0.098,3.084,0.196,6.168,0.337,9.246c-1.953-0.49-3.878-1.077-5.803-1.686C219.354,67.375,221.144,64.835,223.026,62.344z
		 M204.604,64.856c-1.43-0.669-2.883-1.305-4.286-2.034c-0.185-0.092-0.337-0.207-0.517-0.31c3.601-2.034,7.201-4.058,10.818-6.048
		C208.574,59.238,206.562,62.033,204.604,64.856z M210.608,40.995c-6.897,3.742-13.75,7.555-20.56,11.455
		c-2.872-5.668-3.753-12.423-4.019-19.184C194.753,34.936,203.01,37.476,210.608,40.995z M160.884,31.063
		c3.954-0.065,7.811,0.076,11.607,0.348c0.413,10.068,1.762,19.434,6.162,27.669c-12.983,7.68-25.749,15.697-38.182,24.144
		c-7.18-14.756-8.605-32.346-8.882-49.963C141.206,31.602,151.034,30.83,160.884,31.063z M118.074,36.247
		c0.468,19.553,2.513,38.296,11.215,54.728c-11.77,8.387-23.165,17.242-34.152,26.559c-10.03-19.477-14.925-42.398-17.128-63.583
		C90.117,46.092,103.714,40.119,118.074,36.247z M65.483,63.17c3.008,22.273,8.877,43.866,19.7,63.066
		c-11.906,10.704-23.219,22.066-33.826,34.174c-8.055-13.576-14.86-27.957-21.174-41.816C35.748,96.262,48.443,77.508,65.483,63.17z
		 M27.464,153.731c-0.283-3.421-0.359-6.761-0.343-10.068c4.694,9.404,9.725,18.585,15.267,27.375
		c-3.28,4.047-6.483,8.164-9.6,12.379C30.091,173.882,28.302,163.918,27.464,153.731z M131.845,263.301
		c-10.976-1.566-21.637-4.041-31.416-6.978c-30.791-9.246-50.882-30.627-62.185-57.29c3.862-5.575,7.908-10.971,12.064-16.252
		c11.455,15.822,25.096,29.893,42.343,40.809c13.244,8.382,27.815,13.978,43.05,17.661
		C134.325,248.566,133.02,255.914,131.845,263.301z M99.521,211.842c-16.731-9.703-29.779-23.731-40.619-39.575
		c10.476-12.271,21.718-23.742,33.586-34.527c4.112,5.755,8.741,11.248,14.016,16.388c12.428,12.113,27.636,19.912,44.209,25.145
		c-4.765,15.746-8.795,31.791-12.222,48.06C124.97,223.944,111.868,219.005,99.521,211.842z M202.983,255.479
		c-17.242,8.403-37.578,10.606-57.654,9.246c1.12-6.935,2.339-13.842,3.639-20.728c22.545,3.78,46.123,3.889,68.859,2.627
		C213.165,249.91,208.248,252.912,202.983,255.479z M234.899,231.841c-27.489,2.225-55.979,3.057-83.158-1.681
		c3.378-16.018,7.316-31.846,12.015-47.385c23.644,5.521,49.175,7.049,73.025,8.964c1.708,10.525,3.481,21.044,5.341,31.574
		C239.843,226.261,237.456,229.122,234.899,231.841z M252.968,206.549c-0.778-4.525-1.534-9.051-2.274-13.576
		c2.801,0.277,5.559,0.577,8.278,0.897C257.21,198.222,255.181,202.437,252.968,206.549z M263.454,180.834
		c-4.982-0.631-9.981-1.197-14.995-1.702c-1.849-11.857-3.525-23.725-5.042-35.604c8.724,0.566,17.313,0.848,25.574,0.99
		C268.752,156.847,266.865,169.091,263.454,180.834z M268.54,130.87c-8.964-0.212-17.933-0.636-26.853-1.42
		c-1.588-13.842-2.904-27.717-3.835-41.647c6.625,0.337,13.157,0.12,19.336-0.62c5.619,11.602,9.393,24.704,10.998,39.063
		C268.36,127.781,268.42,129.331,268.54,130.87z"/>
</g>
</svg>